<?xml version="1.0" encoding="UTF-8" standalone="no"?>
<svg
   xmlns:dc="http://purl.org/dc/elements/1.1/"
   xmlns:cc="http://creativecommons.org/ns#"
   xmlns:rdf="http://www.w3.org/1999/02/22-rdf-syntax-ns#"
   xmlns:svg="http://www.w3.org/2000/svg"
   xmlns="http://www.w3.org/2000/svg"
   xmlns:sodipodi="http://sodipodi.sourceforge.net/DTD/sodipodi-0.dtd"
   xmlns:inkscape="http://www.inkscape.org/namespaces/inkscape"
   version="1.0"
   width="271"
   height="368"
   viewBox="0 0 203.25 276"
   preserveAspectRatio="xMidYMid meet"
   id="svg212"
   sodipodi:docname="x.svg"
   inkscape:version="0.92.4 (5da689c313, 2019-01-14)">
  <g
     transform="matrix(0.03455761,0,0,-0.0340728,-53.305111,288.86455)"
     id="g210"
     style="fill:#ff7f50;stroke:none;strokeWidth:2.91423249">
    <path
       d="m 4315,8430 c -60,-5 -141,-14 -180,-20 -38,-7 -95,-15 -125,-19 -30,-4 -71,-12 -90,-19 -38,-13 -167,-47 -239,-62 -24,-6 -49,-14 -55,-19 -6,-5 -40,-17 -76,-27 -36,-9 -98,-32 -139,-51 -40,-18 -80,-33 -88,-33 -8,0 -31,-9 -51,-19 -54,-29 -211,-101 -220,-101 -4,0 -18,-10 -32,-21 -45,-36 -99,-69 -115,-69 -9,0 -39,-23 -68,-51 -28,-27 -74,-61 -101,-75 -82,-41 -217,-163 -448,-404 -55,-58 -104,-114 -109,-125 -16,-33 -52,-89 -85,-131 -17,-21 -41,-57 -54,-79 -13,-22 -33,-51 -45,-65 -12,-14 -32,-49 -44,-77 -12,-29 -33,-69 -46,-89 -14,-20 -36,-62 -50,-93 -14,-31 -30,-64 -35,-73 -21,-37 -28,-54 -43,-93 -8,-22 -24,-62 -35,-90 -11,-27 -25,-75 -32,-105 -7,-30 -26,-98 -42,-150 -16,-52 -36,-120 -45,-150 -9,-30 -19,-66 -24,-80 -19,-60 -33,-628 -18,-730 6,-36 14,-94 20,-130 5,-36 14,-94 18,-130 11,-80 44,-212 65,-262 9,-21 16,-48 16,-60 0,-13 11,-44 25,-70 14,-26 25,-54 25,-62 0,-25 79,-214 119,-286 5,-8 18,-35 30,-60 12,-25 26,-52 31,-60 4,-8 30,-53 56,-100 45,-82 83,-135 169,-239 22,-27 56,-72 75,-101 34,-51 71,-93 121,-136 13,-11 53,-57 89,-102 36,-46 84,-94 108,-108 23,-14 62,-44 85,-67 23,-24 76,-65 117,-92 78,-52 228,-161 268,-195 13,-11 29,-20 37,-20 7,0 24,-9 38,-20 14,-11 29,-20 35,-20 5,0 52,-21 104,-47 113,-57 133,-66 218,-99 36,-14 83,-33 105,-43 22,-11 60,-24 85,-30 414,-108 592,-137 760,-127 164,10 148,76 151,-614 2,-316 -1,-585 -5,-598 -8,-23 -79,-62 -113,-62 -8,0 -43,-22 -77,-49 -56,-45 -69,-61 -98,-126 -15,-35 -26,-128 -17,-154 32,-102 42,-118 115,-187 l 75,-71 -11,-59 c -22,-119 -23,-124 -7,-148 19,-28 94,-56 122,-46 11,4 75,10 143,14 67,4 133,11 147,16 23,9 25,13 19,52 -4,24 -15,67 -26,97 -25,74 -23,85 17,107 25,13 49,41 79,94 71,122 73,133 47,244 -22,93 -24,96 -76,141 -29,25 -60,45 -68,45 -8,0 -20,6 -26,14 -7,8 -27,17 -45,20 -19,4 -39,13 -45,20 -8,10 -13,97 -16,263 -2,136 -7,307 -10,378 -3,72 -2,142 2,157 4,15 5,116 0,224 -5,147 -4,200 5,211 9,11 33,14 97,12 47,-2 118,3 156,9 131,23 180,32 220,42 22,5 65,14 95,21 30,6 96,24 147,40 50,16 99,29 108,29 9,0 31,6 48,13 83,35 145,60 177,69 19,5 42,16 50,23 8,6 62,36 120,64 148,74 215,115 303,185 34,27 91,68 127,92 36,24 103,80 149,124 46,44 92,82 102,85 11,4 19,10 19,15 0,5 20,30 45,57 85,92 147,168 185,228 22,33 52,78 68,100 80,112 153,227 175,276 13,31 38,75 56,99 17,24 31,50 31,59 0,9 6,25 13,36 32,48 107,249 107,287 0,14 12,57 26,94 66,175 81,253 100,534 15,225 13,416 -5,580 -25,218 -70,446 -95,486 -8,11 -21,45 -29,75 -8,29 -22,80 -31,112 -9,31 -32,88 -50,125 -18,37 -36,79 -40,93 -3,15 -21,49 -39,76 -18,27 -43,76 -56,109 -12,32 -37,82 -54,110 -58,92 -107,163 -117,169 -6,4 -21,28 -34,54 -14,26 -32,53 -41,61 -9,7 -26,32 -37,54 -11,23 -54,77 -95,121 -41,44 -89,96 -108,117 -18,20 -49,44 -69,53 -20,9 -46,34 -58,54 -28,46 -44,59 -148,129 -47,31 -108,74 -137,97 -95,74 -226,158 -264,170 -13,4 -35,15 -49,25 -30,20 -86,46 -195,90 -44,18 -85,36 -90,41 -29,23 -447,143 -553,159 -31,5 -93,16 -137,24 -126,24 -409,38 -560,26 z m 470,-119 c 116,-8 167,-16 223,-35 49,-17 90,-25 125,-23 36,1 64,-4 92,-19 22,-11 67,-28 100,-38 33,-10 74,-22 90,-28 17,-5 57,-18 90,-28 68,-21 506,-238 539,-268 11,-10 39,-29 61,-42 37,-22 86,-61 160,-128 17,-15 50,-43 73,-62 24,-19 64,-54 90,-78 26,-23 55,-44 64,-47 9,-3 31,-28 48,-55 17,-26 42,-56 56,-64 13,-9 24,-22 24,-29 0,-6 29,-43 64,-82 35,-38 81,-97 102,-130 21,-33 43,-67 49,-75 5,-9 19,-31 30,-49 11,-19 29,-45 40,-60 21,-27 74,-131 166,-326 61,-131 79,-177 89,-230 5,-22 24,-83 43,-135 52,-142 68,-203 77,-301 5,-48 11,-93 14,-98 9,-14 29,-280 29,-371 0,-87 -19,-422 -28,-495 -6,-48 -13,-78 -64,-268 -23,-84 -89,-277 -116,-342 -45,-105 -94,-202 -109,-214 -9,-7 -25,-32 -36,-55 -11,-22 -24,-48 -29,-56 -6,-8 -19,-35 -30,-60 -12,-25 -35,-64 -53,-87 -18,-23 -60,-79 -93,-124 -33,-44 -71,-95 -85,-111 -100,-123 -148,-177 -179,-201 -20,-16 -67,-60 -105,-98 -38,-39 -78,-75 -90,-81 -25,-13 -64,-42 -114,-84 -20,-17 -65,-45 -99,-62 -34,-18 -64,-36 -68,-42 -3,-6 -23,-20 -43,-31 -20,-11 -55,-31 -77,-44 -22,-14 -47,-27 -55,-31 -13,-6 -45,-20 -165,-75 -50,-22 -346,-119 -366,-119 -10,0 -20,-4 -23,-9 -3,-5 -45,-14 -93,-21 -49,-7 -102,-18 -119,-25 -18,-7 -90,-18 -160,-24 -71,-6 -154,-14 -185,-17 -73,-7 -79,6 -40,95 15,36 38,93 50,126 40,107 65,158 102,205 20,26 44,61 53,78 9,17 30,38 46,47 16,8 48,28 72,44 52,35 108,57 165,65 40,6 62,14 179,67 23,11 46,19 52,19 6,0 47,18 91,40 44,22 83,40 87,40 4,0 43,25 88,55 45,30 96,60 114,66 18,6 32,15 32,19 0,5 24,25 54,45 30,20 70,50 90,68 19,18 64,56 100,86 36,30 66,59 66,63 0,12 38,63 85,113 22,23 54,61 70,84 17,23 51,67 77,98 26,30 56,74 67,97 10,22 31,68 46,101 15,33 38,71 51,85 22,25 84,192 109,300 7,30 24,84 37,120 59,157 72,678 23,910 -9,41 -25,100 -35,131 -11,30 -20,64 -20,74 0,10 -9,37 -19,59 -10,23 -21,62 -24,87 -4,41 -28,103 -71,179 -8,14 -36,68 -62,120 -42,86 -86,156 -122,199 -7,9 -31,43 -52,76 -22,33 -62,85 -91,115 -44,47 -49,56 -35,66 21,15 20,46 -2,70 -9,10 -25,31 -35,46 -9,15 -36,49 -60,76 -23,27 -46,56 -52,64 -5,9 -25,18 -43,22 -31,5 -39,1 -98,-59 -35,-35 -64,-70 -64,-78 0,-12 67,-88 163,-185 40,-41 44,-43 90,-37 44,5 48,4 57,-21 10,-24 38,-64 74,-104 7,-8 30,-42 52,-75 21,-33 46,-69 55,-80 22,-25 83,-135 110,-195 10,-25 28,-61 38,-80 17,-31 38,-92 86,-255 18,-59 33,-123 45,-185 4,-25 13,-58 19,-73 6,-16 11,-43 11,-61 0,-19 6,-51 14,-73 10,-29 13,-76 11,-164 -3,-114 -20,-340 -30,-399 -13,-83 -67,-288 -106,-402 -25,-75 -123,-275 -148,-303 -10,-11 -22,-31 -26,-44 -4,-14 -31,-53 -59,-87 -28,-34 -66,-82 -84,-107 -18,-25 -49,-63 -69,-84 -140,-150 -191,-201 -232,-226 -25,-16 -58,-44 -74,-62 -15,-19 -42,-38 -61,-45 -18,-6 -44,-22 -56,-35 -13,-14 -27,-25 -32,-25 -10,0 -83,-46 -113,-70 -35,-29 -279,-124 -360,-140 -59,-11 -129,-29 -225,-58 -79,-24 -101,-26 -335,-30 -247,-3 -278,-1 -415,33 -30,7 -82,18 -115,24 -82,15 -137,28 -225,57 -41,14 -88,29 -105,33 -16,5 -60,23 -97,40 -36,17 -70,31 -74,31 -4,0 -18,10 -30,21 -27,25 -36,31 -135,82 -41,21 -92,56 -114,77 -22,22 -59,49 -82,62 -84,46 -218,173 -283,267 -21,31 -59,81 -84,111 -81,99 -96,118 -96,124 0,3 -16,27 -35,52 -20,26 -44,63 -54,83 -10,20 -39,75 -64,123 -26,48 -51,104 -56,125 -9,33 -67,202 -84,243 -4,8 -11,40 -16,70 -22,122 -30,156 -42,185 -9,21 -12,98 -12,260 0,247 11,335 59,485 13,41 24,83 24,93 0,31 125,352 147,379 6,7 32,55 57,107 25,52 66,117 91,145 65,73 72,82 85,106 6,12 29,39 51,61 21,21 39,43 39,48 0,17 29,20 60,5 30,-16 32,-15 85,26 29,23 59,48 66,56 6,8 17,14 23,14 21,0 96,77 96,99 0,13 -24,45 -60,81 -73,73 -104,93 -127,86 -20,-7 -71,-61 -144,-155 -41,-54 -49,-69 -44,-93 6,-24 -3,-38 -67,-110 -40,-45 -84,-93 -98,-107 -29,-30 -150,-211 -150,-224 0,-5 -15,-35 -33,-66 -19,-31 -40,-72 -47,-91 -7,-19 -21,-53 -30,-75 -10,-22 -32,-78 -50,-125 -17,-47 -36,-94 -42,-104 -6,-11 -16,-47 -24,-80 -7,-34 -22,-104 -33,-156 -14,-62 -25,-166 -31,-300 -12,-223 -5,-320 32,-465 11,-44 26,-114 33,-155 18,-106 32,-151 60,-203 14,-24 36,-76 49,-113 14,-38 43,-100 65,-139 23,-38 41,-76 41,-83 0,-7 11,-28 24,-45 13,-18 31,-48 39,-67 9,-19 52,-73 96,-120 45,-47 81,-93 81,-102 0,-9 23,-36 51,-60 28,-24 65,-63 82,-88 35,-53 97,-120 110,-120 5,0 37,-23 71,-51 59,-48 156,-116 219,-151 16,-9 35,-22 40,-27 6,-6 22,-11 35,-11 13,0 32,-10 42,-23 22,-27 62,-48 225,-115 217,-90 295,-115 408,-131 76,-11 171,-68 204,-123 11,-18 49.9286,-54.5119 74.9286,-82.5119 26,-29 38.0714,-60.4881 38.0714,-69.4881 0,-9 22.8571,-67.1548 27.8571,-77.1548 6,-9 1.1429,-4.8452 11.1429,-43.8452 11,-38 29,-98 42,-133 21,-60 21,-63 4,-82 -12,-13 -22,-17 -29,-11 -6,5 -22,10 -36,10 -149,5 -395,33 -450,50 -36,12 -82,21 -104,21 -43,0 -60,5 -306,86 -96,31 -217,79 -269,106 -51,26 -98,48 -103,48 -20,0 -244,141 -285,180 -13,11 -49,36 -81,55 -32,19 -81,54 -108,77 -27,24 -65,55 -84,70 -65,48 -165,151 -311,323 -155,182 -209,252 -209,270 0,6 -15,29 -34,51 -19,22 -41,55 -50,74 -31,66 -73,140 -89,158 -9,10 -17,26 -17,34 0,9 -11,36 -25,59 -14,24 -25,54 -25,67 0,12 -13,46 -30,75 -32,58 -98,258 -125,382 -10,44 -25,103 -33,130 -9,28 -17,91 -19,140 -1,50 -8,124 -14,165 -10,58 -10,121 -1,285 7,116 12,233 12,260 0,62 41,245 87,385 19,58 38,123 43,145 11,52 47,153 65,187 8,14 15,34 15,44 0,10 8,27 19,38 10,12 27,44 37,71 17,49 75,148 165,288 65,101 242,320 328,407 42,42 114,106 161,142 47,37 103,85 124,107 22,23 42,41 46,41 4,0 35,23 69,50 34,28 68,50 74,50 7,0 35,19 62,41 28,23 88,59 135,81 47,22 108,50 136,64 28,13 55,24 61,24 5,0 36,16 68,35 32,20 75,40 94,45 181,46 238,62 255,74 12,7 48,16 81,20 33,4 94,16 135,27 42,11 152,26 249,34 95,8 176,17 180,20 7,7 174,1 396,-14 z M 3168,7164 c 33,-10 -5,-81 -58,-109 -26,-13 -30,-13 -54,6 -34,27 -33,40 10,83 36,36 46,38 102,20 z m 2879,-51 c 39,-44 40,-71 1,-93 -27,-14 -29,-14 -68,25 -45,44 -50,67 -18,89 33,23 47,20 85,-21 z M 4380,3334 c 0,-10 -7,-14 -22,-12 -32,5 -23.0952,-19.619 7.9048,-19.619 17,0 14.0952,42.619 14.0952,31.619 z m 275.9881,-55.0357 c 15,-15 48.0119,36.0357 -26.9881,37.0357 -77,2 -79,1 -79,-22 0,-29 -13,-31 -40,-4 -20,20 46,-62 91,-35 21,13 41.9881,35.9643 54.9881,23.9643 z m -191.8929,14.5714 c 16,-24 42.9048,-47.5357 45.9048,-58.5357 4,-14 18,-22 53,-28 71,-11 109,2 119,41 5,18 17,36 26,39 9,4 21,12 25,20 11,17 -106.3929,-75.2619 -91.3929,-94.2619 7,-8 82.5239,-52.2024 95.5239,-52.2024 36,0 109.869,93.4643 72.869,74.4643 -18,-9 -30,-23 -30,-35 0,-21 -15,-27 -25,-10 -11,18 -22,10 -40,-30 -10,-22 -24,-45 -32,-51 -7,-6 -66.5714,-97.869 -66.5714,-106.869 0,-20 6.5714,-12.131 -6.4286,-12.131 -13,0 26.8452,-39.1428 17.8451,-3.1428 -4,16 -90.4047,155.5833 -101.4047,168.5833 -10,14 278.3982,2.366 278.3982,14.366 0,23 -344.8387,90.1935 -366.8387,90.1935 -20,0 66.1667,-29.5952 66.1667,-5.5952 0,51 -77.0715,93.1309 -40.0715,39.1309 z M 4610,3276 c 0,-8 -4,-17 -9,-21 -12,-7 -24,12 -16,25 9,15 25,12 25,-4 z m -7.5806,-418.5806 c -17,-33 34.5806,36.5806 29.5806,66.5806 -2,11 4,19 16,23 11,3 24,17 28,31 7,25 -98.4516,-23.3871 -95.4516,-43.3871 3,-12 30.871,-60.1935 21.871,-77.1935 z M 4632,2759 c -4,-90 -12,-110 -37,-89 -19,16 69,-58 87,-43 10,8 -41.129,48.4194 -43.129,83.4194 -3,57 -17,6 0,0 8,-3 -4.871,106.5806 -6.871,48.5806 z m -50,-1 c -12,-12 42,-12 50,1 3,5 -58,2 -50,-1 10,-4 6,6 0,0 z m 156,-1451 c 107,-50 134,-81 159,-179 18,-70 10,-109 -39,-196 -46,-80 -79,-92 -103,-36 -19,46 -19,92 0,137 26,62 20,88 -30,137 -39,38 -51,44 -98,48 -45,3 -59,0 -91,-22 -57,-38 -76,-65 -76,-104 0,-19 9,-50 21,-69 16,-26 19,-42 14,-69 -8,-48 -25,-82 -41,-88 -21,-8 -78,47 -108,106 -37,72 -43,129 -19,198 17,48 27,60 82,98 147,100 187,104 329,39 z m -92,-249 c 7,-5 15,-34 19,-66 4,-31 32,-126 62,-210 43,-123 52,-156 42,-168 -10,-12 -39,-14 -153,-12 l -141,3 -3,36 c -2,20 6,59 17,88 12,28 21,61 21,72 0,10 4,27 9,37 21,41 30,70 36,112 4,25 14,64 23,87 17,43 34,49 68,21 z"
       id="path116"
       inkscape:connector-curvature="0"
       sodipodi:nodetypes="ccsccsccscscscccccssccscccssscccccssscsccccccccccssscccccccsccccccccccccccccscccccscscccccscccccsscscccccscsccccccscsccccccscsccccccccccccccsccsccccsccscsccccccccscccccccsccccccccscccsscccccccsccccssssssscssccccscccccscccccccsccccccscccccccccccsccccccsscccccscccccccccsccccccscscccccscscsccsscccssscccscscscccccccccccscccsscsccsscccccscccccccsccscscccssccscsccccccscccsccccccscscscscccscccccccsccccccscssccssccsccccccscscccssscssscsccscccccccsccccsccsccccccccsccccccccccsccccsccccc"
       style="strokeWidth:2.91423249" />
    <path
       d="m 4390,8168 c -11,-18 -20,-41 -20,-51 0,-18 -42,-100 -65,-127 -7,-8 -16,-25 -20,-38 -9,-31 -34,-25 -58,16 -17,29 -18,37 -6,82 17,65 4,95 -49,111 -29,8 -44,8 -60,0 -11,-6 -47,-11 -80,-11 -81,0 -88,-10 -74,-103 6,-39 14,-103 18,-142 7,-75 16,-95 45,-95 27,0 34,18 34,90 v 65 l 33,3 c 39,4 72,-20 72,-52 0,-56 62,-86 102,-49 16,14 21,15 44,3 32,-18 55,-5 66,38 16,61 103,56 143,-8 28,-44 44,-49 68,-22 20,21 22,43 6,59 -6,6 -19,40 -29,75 -47,165 -57,182 -108,186 -38,3 -43,0 -62,-30 z m -262,-112 c 5,-24 -37,-40 -71,-27 -21,8 -28,17 -25,33 6,43 88,38 96,-6 z m 340,-17 c 3,-28 -16,-43 -43,-33 -31,12 -8,68 25,62 8,-2 16,-15 18,-29 z"
       id="path118"
       style="fill:#000080;strokeWidth:2.91423249"
       inkscape:connector-curvature="0" />
    <path
       d="m 4669,8184 c -7,-8 -16,-54 -20,-102 -5,-48 -11,-109 -15,-135 -6,-42 -4,-51 16,-72 43,-46 60,-29 60,60 0,35 5,59 16,69 25,26 50,3 76,-70 25,-71 50,-97 86,-87 20,5 22,11 22,74 0,37 7,94 15,126 21,81 20,120 -5,133 -12,6 -30,8 -40,5 -22,-7 -28,-26 -32,-95 -3,-41 -5,-45 -28,-45 -22,0 -28,8 -45,61 -11,34 -26,69 -34,78 -17,20 -55,21 -72,0 z"
       id="path120"
       style="fill:#000080;strokeWidth:2.91423249"
       inkscape:connector-curvature="0" />
    <path
       d="m 5065,8107 c -33,-22 -57,-49 -72,-79 -21,-44 -21,-47 -6,-109 23,-93 54,-122 136,-127 61,-4 65,-3 101,31 23,22 36,43 34,54 -4,23 -54,30 -76,10 -65,-55 -124,-8 -114,90 5,50 29,74 73,76 28,2 37,-4 58,-35 35,-54 91,-49 91,7 0,33 -51,92 -85,100 -86,18 -89,18 -140,-18 z"
       id="path122"
       style="fill:#000080;strokeWidth:2.91423249"
       inkscape:connector-curvature="0" />
    <path
       d="m 3805,8105 c -16,-7 -61,-23 -99,-35 -85,-26 -106,-37 -106,-55 0,-27 29,-44 64,-38 39,6 76,-22 76,-58 0,-37 30,-126 48,-142 28,-24 58,-29 73,-11 11,13 10,23 -4,63 -10,25 -28,75 -40,110 -22,63 -22,64 -3,75 11,6 31,21 44,34 22,21 22,25 10,44 -19,28 -27,30 -63,13 z"
       id="path124"
       style="fill:#000080;strokeWidth:2.91423249"
       inkscape:connector-curvature="0" />
    <path
       d="m 5383,8028 c -5,-7 -20,-38 -33,-68 -13,-30 -34,-78 -47,-107 -31,-69 -30,-123 3,-123 7,0 47,-18 89,-40 42,-22 82,-40 89,-40 18,0 46,33 46,54 0,17 -69,55 -101,56 -8,0 -26,11 -38,24 -19,20 -21,28 -12,45 14,26 22,26 73,1 67,-32 113,-23 106,20 -2,18 -14,27 -53,39 -62,20 -76,51 -23,51 19,0 43,-7 54,-15 38,-29 84,-7 84,40 0,25 -17,35 -60,35 -16,0 -52,9 -80,20 -59,23 -84,25 -97,8 z"
       id="path126"
       style="fill:#000080;strokeWidth:2.91423249"
       inkscape:connector-curvature="0" />
    <path
       d="m 3492,7987 c -29,-30 -28,-52 3,-89 14,-16 25,-38 25,-48 0,-17 -4,-18 -32,-8 -18,6 -46,23 -63,39 -45,42 -82,53 -111,34 -31,-20 -30,-33 7,-113 18,-37 44,-95 60,-129 28,-63 51,-80 89,-68 28,9 25,40 -9,88 -17,23 -33,54 -37,70 -10,43 23,35 95,-23 88,-70 129,-77 153,-26 9,22 7,30 -16,60 -14,19 -40,71 -56,116 -39,106 -47,120 -69,120 -9,0 -27,-10 -39,-23 z"
       id="path128"
       style="fill:#000080;strokeWidth:2.91423249"
       inkscape:connector-curvature="0" />
    <path
       d="m 3135,7827 c -16,-12 -54,-42 -83,-66 -58,-48 -60,-63 -17,-111 13,-14 38,-52 56,-85 18,-33 41,-70 52,-82 23,-26 69,-30 87,-8 7,8 20,15 29,15 19,0 90,45 109,68 19,25 14,51 -12,63 -20,10 -31,6 -76,-25 -58,-40 -94,-46 -110,-17 -13,25 7,46 66,71 48,21 58,33 49,59 -12,38 -67,28 -109,-18 -33,-36 -87,-20 -71,22 6,15 78,57 98,57 27,0 41,28 29,55 -15,32 -55,32 -97,2 z"
       id="path130"
       style="fill:#000080;strokeWidth:2.91423249"
       inkscape:connector-curvature="0" />
    <path
       d="m 5805,7813 c -14,-21 -25,-42 -25,-47 0,-5 -10,-23 -23,-40 -36,-48 -77,-123 -77,-140 0,-15 48,-66 62,-66 4,0 29,-16 54,-36 60,-45 98,-44 102,3 3,25 -1,33 -20,39 -12,4 -40,18 -60,32 -29,19 -38,31 -38,53 0,24 4,29 25,29 13,0 41,-11 61,-25 42,-29 82,-32 91,-9 9,25 -9,46 -61,73 -36,19 -46,29 -44,45 5,33 34,30 87,-8 52,-38 70,-43 89,-24 17,17 15,42 -5,60 -20,18 -171,98 -184,98 -5,0 -20,-17 -34,-37 z"
       id="path132"
       style="fill:#000080;strokeWidth:2.91423249"
       inkscape:connector-curvature="0" />
    <path
       d="m 6102,7668 c -5,-7 -13,-40 -17,-73 -8,-68 -43,-125 -77,-125 -31,0 -88,-39 -88,-60 0,-16 9,-19 62,-22 l 61,-3 16,-49 c 32,-98 81,-86 81,20 0,39 5,66 12,71 7,4 47,22 88,39 76,31 94,51 70,79 -16,20 -55,19 -90,-1 -36,-22 -65,-12 -55,19 18,56 17,75 -4,96 -24,24 -44,27 -59,9 z"
       id="path134"
       style="fill:#000080;strokeWidth:2.91423249"
       inkscape:connector-curvature="0" />
    <path
       d="m 2724,7508 c -52,-51 -94,-99 -94,-106 0,-22 28,-25 65,-8 25,12 40,14 53,7 20,-10 74,-70 105,-116 29,-41 62,-52 87,-30 36,33 25,58 -55,132 -41,39 -75,77 -75,85 0,8 9,23 20,33 25,22 27,80 4,89 -11,4 -44,-22 -110,-86 z"
       id="path136"
       style="fill:#000080;strokeWidth:2.91423249"
       inkscape:connector-curvature="0" />
    <path
       d="m 4243,7481 c -12,-6 -29,-20 -37,-33 -20,-30 -27,-145 -15,-233 13,-95 6,-123 -38,-142 -30,-12 -41,-12 -67,-2 -37,15 -46,26 -46,58 0,13 -13,52 -30,87 -16,35 -32,77 -35,95 -8,45 -23,69 -48,78 -33,12 -234,-16 -276,-38 -11,-6 -28,-11 -39,-11 -11,0 -22,-6 -25,-14 -3,-8 -23,-19 -44,-26 -66,-21 -111,-59 -138,-117 -32,-67 -39,-127 -26,-223 6,-41 16,-113 22,-158 l 11,-84 -33,-34 c -19,-20 -43,-34 -57,-34 -24,0 -101,55 -186,135 -40,37 -56,45 -87,45 -32,0 -43,-7 -78,-46 -23,-26 -41,-53 -41,-60 0,-7 -18,-31 -40,-54 -22,-23 -40,-47 -40,-53 0,-7 -20,-52 -45,-102 -24,-49 -45,-94 -45,-100 -1,-5 -14,-26 -30,-45 -17,-19 -30,-39 -30,-45 0,-5 -14,-36 -31,-68 -36,-69 -35,-97 5,-110 16,-5 45,-20 64,-33 19,-13 48,-26 66,-30 17,-3 58,-20 91,-38 60,-31 60,-31 63,-79 2,-33 -2,-57 -13,-74 -19,-28 -25,-28 -225,-2 -52,6 -108,12 -125,13 -52,2 -55,-18 -59,-376 -4,-308 -3,-325 16,-366 25,-53 39,-59 92,-43 61,18 112,30 199,44 88,16 92,14 128,-51 33,-61 21,-88 -56,-125 -33,-16 -75,-41 -95,-57 -19,-15 -50,-31 -67,-35 -80,-17 -98,-112 -38,-205 19,-30 35,-61 35,-67 0,-7 15,-30 34,-50 18,-21 41,-54 51,-73 9,-19 34,-53 56,-75 21,-22 67,-83 102,-135 41,-62 71,-96 84,-98 15,-2 50,25 124,97 117,115 140,124 197,72 33,-31 34,-43 3,-98 -6,-10 -17,-34 -25,-53 -9,-19 -29,-51 -46,-71 -18,-20 -35,-54 -40,-75 -8,-35 -6,-44 28,-93 20,-29 44,-56 52,-59 8,-3 28,-16 43,-29 16,-13 37,-23 47,-23 10,0 32,-11 49,-25 36,-31 159,-95 181,-95 8,0 29,-8 46,-19 17,-10 41,-22 55,-26 13,-4 48,-18 77,-32 28,-13 60,-23 69,-21 25,5 43,46 43,98 0,25 6,54 14,65 7,11 17,36 21,55 14,67 29,80 93,80 32,0 63,-5 70,-12 8,-8 12,-60 12,-168 0,-219 -32,-200 328,-199 390,1 440,8 415,61 -7,13 -14,34 -17,48 -3,14 -12,48 -20,77 -8,29 -18,72 -21,97 -7,44 -7,45 34,65 22,12 50,21 61,21 35,0 96,-85 165,-228 14,-30 34,-56 47,-61 31,-11 86,8 206,73 57,31 107,56 111,56 3,0 29,18 56,41 27,22 68,50 90,61 22,11 52,31 66,45 15,13 42,32 60,41 38,19 63,62 54,91 -3,10 -39,53 -80,95 -67,68 -75,80 -75,115 0,32 6,43 34,65 19,14 37,22 41,17 3,-5 31,-17 61,-26 41,-12 71,-30 108,-64 70,-66 90,-71 124,-31 15,17 44,51 64,74 21,24 45,61 54,82 9,21 24,48 34,59 11,11 26,38 36,60 9,22 31,59 50,82 19,23 34,45 34,49 0,4 20,50 46,102 54,114 57,155 9,160 -52,4 -103,22 -109,37 -4,10 -20,15 -49,15 -66,0 -81,22 -72,105 3,35 11,68 17,71 16,10 188,5 246,-8 75,-16 79,-10 90,147 12,152 7,441 -8,480 -5,14 -10,45 -10,69 0,23 -5,47 -12,54 -15,15 -58,15 -95,1 -15,-6 -62,-17 -103,-24 -92,-16 -111,-8 -130,60 -17,61 -5,86 57,115 26,12 70,33 96,46 27,13 58,24 68,24 13,0 25,12 33,32 13,29 11,39 -16,113 -16,44 -43,97 -59,118 -17,20 -37,53 -45,72 -8,20 -30,56 -49,81 -19,25 -35,52 -35,59 0,7 -11,26 -24,42 -13,15 -31,44 -41,63 -22,43 -85,110 -103,110 -8,0 -26,-12 -41,-27 -45,-46 -170,-147 -192,-155 -25,-10 -84,16 -104,46 -23,32 -18,69 17,117 18,24 47,67 65,94 18,28 41,59 52,70 36,36 27,61 -40,108 -34,23 -89,66 -123,95 -71,61 -70,61 -117,90 -20,12 -43,22 -51,22 -8,0 -25,11 -38,25 -13,14 -32,25 -42,25 -11,0 -36,13 -56,29 -23,19 -55,32 -85,36 -47,7 -49,6 -85,-33 -26,-28 -41,-56 -50,-96 -18,-79 -58,-163 -82,-176 -28,-15 -104,-3 -125,20 -18,20 -17,25 27,257 20,105 20,113 4,137 -16,26 -17,26 -155,26 -76,0 -225,2 -332,5 -115,3 -203,1 -216,-4 z m 208,-571 c 3,-267 9,-494 13,-505 4,-12 2,-27 -6,-36 -16,-20 -114,-33 -124,-17 -4,6 -8,213 -10,461 -2,248 -6,463 -9,478 -4,15 -1,46 5,69 l 11,41 57,-3 57,-3 z m 176,480 c 53,0 52,5 51,-468 -2,-327 1,-452 11,-496 15,-69 10,-76 -57,-76 -88,0 -82,-35 -82,448 0,235 -5,458 -10,496 -9,60 -8,71 7,88 11,12 25,17 38,14 11,-3 30,-6 42,-6 z m 216,-90 c -1,-52 -4,-131 -8,-175 l -7,-80 41,-55 41,-54 1,-251 c 1,-137 2,-284 3,-325 1,-72 0,-75 -23,-78 -18,-3 -88,20 -102,32 -1,1 -3,109 -5,241 -2,132 -6,305 -9,385 -15,399 -15,424 3,443 9,11 26,17 41,15 26,-3 26,-3 24,-98 z m -1084,-44 c 9,-10 12,-60 10,-163 -1,-81 -1,-373 1,-648 3,-484 2,-501 -17,-540 -24,-49 -49,-125 -60,-184 -9,-52 -26,-62 -48,-28 -13,20 -14,36 -6,88 12,87 13,526 2,1034 -7,284 -7,423 0,432 6,6 27,14 47,16 20,2 42,4 48,5 6,1 17,-4 23,-12 z m 155,-28 c 1,-7 17,-56 34,-108 44,-135 50,-192 56,-577 7,-378 12,-345 -61,-400 -64,-49 -62,-57 -68,422 -3,237 -10,477 -15,535 -14,147 -15,140 20,140 17,0 32,-6 34,-12 z m 1430,-21 c 27,-19 28,-22 22,-76 -15,-132 -4,-1178 13,-1254 6,-22 7,-53 4,-68 -3,-16 0,-42 5,-59 8,-22 8,-38 0,-55 -14,-30 -22,-31 -48,-5 -15,15 -20,33 -20,69 0,28 -4,53 -10,56 -5,3 -10,14 -10,24 0,10 -13,45 -30,77 l -29,59 -7,575 c -7,648 -7,645 7,672 8,15 17,18 42,12 18,-3 45,-16 61,-27 z M 3557,7015 c 2,-149 -4,-235 -16,-235 -19,0 -62,52 -57,67 4,9 -3,65 -15,125 -24,121 -20,146 31,174 52,28 55,21 57,-131 z m 1975,71 c 38,-29 48,-73 48,-211 0,-87 -4,-128 -15,-149 -20,-37 -19,-71 3,-103 15,-25 17,-62 18,-393 1,-201 4,-428 8,-505 3,-77 8,-397 11,-710 2,-314 7,-584 11,-600 4,-23 -1,-39 -20,-65 -53,-72 -52,-94 2,-167 32,-44 47,-155 26,-198 -19,-40 -97,-84 -122,-69 -11,8 -16,22 -15,45 7,109 -1,901 -12,1249 -4,107 -9,402 -11,655 -3,253 -7,633 -10,843 -3,211 -3,390 0,399 7,18 39,9 78,-21 z M 4223,6685 c 2,-176 6,-330 11,-342 7,-19 2,-25 -48,-48 -31,-15 -63,-24 -71,-21 -16,6 -17,31 -17,501 0,157 3,201 14,206 30,15 74,27 91,26 16,-2 18,-24 20,-322 z m 915,244 c -11,-48 -12,-367 -3,-574 12,-242 13,-220 -16,-223 -15,-2 -32,5 -44,18 -10,11 -24,20 -31,20 -37,0 -40,36 -43,403 l -2,357 30,6 c 17,4 36,13 42,20 6,8 18,14 25,14 8,0 19,9 26,20 12,19 13,19 20,1 3,-10 2,-38 -4,-62 z m 562,61 c 0,-5 -7,-10 -15,-10 -8,0 -15,5 -15,10 0,6 7,10 15,10 8,0 15,-4 15,-10 z m -25,-60 c 11,-12 15,-26 10,-37 -6,-16 -8,-16 -15,3 -5,12 -13,25 -19,29 -13,7 -15,25 -3,25 5,0 17,-9 27,-20 z M 3534,6707 c 21,-39 24,-52 15,-75 -7,-17 -8,-62 -4,-122 4,-52 8,-275 10,-495 4,-494 13,-1105 21,-1450 3,-143 7,-352 8,-464 2,-219 -2,-234 -47,-194 -12,11 -34,27 -48,35 -49,31 -63,172 -23,233 7,11 18,43 25,70 7,28 20,58 30,68 24,23 24,33 -1,55 -11,9 -32,29 -46,44 l -27,27 -3,353 c -2,194 -6,452 -9,573 -5,182 -17,933 -19,1176 -1,61 1,68 36,109 28,32 36,49 32,67 -8,29 3,60 16,47 5,-5 20,-30 34,-57 z m -444,-294 c 0,-164 4,-336 9,-383 4,-47 5,-134 1,-195 -10,-162 -4,-524 10,-650 15,-127 15,-123 5,-355 -5,-110 -3,-227 4,-314 10,-127 9,-141 -6,-158 -26,-29 -53,-18 -90,35 l -34,48 -2,233 c -2,257 1,273 56,297 31,14 32,16 29,69 -2,37 -9,63 -23,80 -11,14 -30,48 -43,76 -24,49 -24,58 -25,326 l -1,276 31,77 c 50,125 49,135 -5,193 l -47,50 9,69 c 6,42 6,137 0,250 -9,172 -8,185 11,228 19,44 21,45 65,45 h 44 z m 2946,195 c 11,-33 6,-500 -6,-576 -7,-41 -7,-76 -1,-100 6,-20 13,-188 17,-372 9,-413 10,-368 -6,-475 -17,-115 -16,-132 6,-157 17,-18 19,-36 16,-182 -2,-89 2,-192 8,-230 8,-48 8,-72 0,-80 -5,-5 -10,-19 -10,-30 0,-24 -54,-86 -74,-86 -7,0 -20,8 -29,18 -17,19 -19,44 -19,282 0,85 -1,193 -3,240 -7,170 -18,880 -17,1075 1,110 -2,295 -7,410 -4,116 -5,216 -2,223 11,21 75,61 98,62 14,0 24,-8 29,-22 z m -2786,-28 c 12,-16 27,-30 34,-30 8,0 18,-6 24,-12 10,-13 17,-314 29,-1218 3,-223 5,-466 5,-540 -1,-74 4,-156 10,-181 17,-73 8,-90 -67,-123 -36,-16 -68,-26 -72,-23 -3,4 -5,59 -3,124 1,65 2,127 1,138 0,11 -3,243 -6,515 -10,757 -22,1292 -30,1323 -15,57 39,77 75,27 z m 2554,-98 c 3,-5 8,-188 12,-408 3,-219 8,-484 10,-589 2,-104 6,-347 9,-540 3,-192 10,-379 15,-415 5,-36 11,-74 12,-85 3,-17 -2,-20 -37,-18 -22,1 -56,5 -75,8 l -36,7 -1,261 c -1,380 -20,1467 -29,1658 -4,91 -2,118 8,122 21,9 106,8 112,-1 z m 370,-64 c 8,-13 18,-36 22,-53 12,-47 64,-149 86,-166 21,-16 21,-16 -3,-33 -93,-64 -133,-86 -143,-76 -11,11 -11,230 0,308 7,47 17,52 38,20 z m -3290,-30 c 8,-56 10,-121 8,-185 -2,-63 -12,-66 -76,-22 -37,24 -46,36 -46,60 0,35 78,189 96,189 7,0 15,-18 18,-42 z m 1739,-127 c 73,-10 240,-72 273,-102 11,-11 25,-19 31,-19 5,0 18,-9 28,-20 10,-11 39,-32 64,-47 25,-14 56,-37 68,-50 26,-28 88,-131 98,-164 4,-13 16,-33 27,-45 34,-37 58,-170 58,-317 -1,-96 -5,-139 -15,-157 -8,-14 -14,-39 -15,-56 -1,-89 -116,-265 -237,-362 -15,-12 -50,-41 -76,-62 -34,-28 -58,-40 -81,-40 -17,0 -36,-4 -42,-9 -5,-4 -31,-16 -58,-25 -62,-20 -321,-22 -412,-2 -72,15 -188,67 -224,100 -14,13 -45,37 -70,53 -25,17 -58,50 -75,72 -16,23 -47,64 -67,90 -21,27 -38,52 -38,55 0,4 -9,19 -20,34 -53,71 -92,241 -87,372 4,88 39,244 61,270 7,8 28,45 47,82 58,116 169,227 229,228 8,0 33,14 54,30 22,17 46,30 53,30 8,0 41,12 75,26 46,19 89,28 167,34 59,4 108,8 111,8 3,1 35,-3 73,-7 z M 2700,5759 c 0,-4 -7,-9 -15,-13 -10,-4 -15,-19 -15,-48 1,-244 3,-304 13,-317 7,-8 12,-39 12,-70 1,-31 5,-64 9,-73 12,-26 -22,-23 -51,4 -24,22 -30,52 -13,63 15,9 12,25 -4,25 -11,0 -15,34 -18,183 -4,226 -1,254 32,271 21,11 27,11 38,-2 6,-9 12,-19 12,-23 z m 176,9 c 4,-7 9,-81 10,-164 2,-84 5,-182 8,-219 7,-79 -3,-101 -49,-121 -75,-31 -120,-4 -95,57 9,20 11,89 8,239 -4,146 -2,211 6,214 24,10 105,5 112,-6 z m 3395,-45 c 5,-13 9,-101 9,-196 0,-94 5,-197 12,-228 11,-52 10,-60 -6,-78 -15,-16 -29,-19 -73,-17 -30,1 -58,8 -62,15 -9,13 -14,508 -6,521 3,5 30,8 61,8 49,-1 57,-3 65,-25 z m 135,-25 c 6,-13 9,-94 9,-180 -1,-139 -3,-159 -20,-178 -16,-18 -17,-25 -6,-55 10,-29 10,-38 -5,-60 -9,-14 -19,-25 -23,-25 -10,0 -6,361 3,383 5,10 6,37 3,59 -9,64 19,103 39,56 z M 3676,5578 c -1,-48 -26,-67 -26,-20 0,17 3,37 6,46 11,29 21,17 20,-26 z m 1702,24 c 2,-7 -4,-15 -13,-18 -20,-8 -27,-1 -19,20 7,18 25,17 32,-2 z m 2,-179 c 0,-27 -3,-34 -11,-26 -7,7 -9,23 -5,37 9,37 16,32 16,-11 z m -1695,-22 c 4,-23 2,-48 -4,-60 -8,-15 -8,-23 3,-34 8,-8 18,-32 22,-53 7,-38 53,-133 79,-164 9,-12 13,-115 14,-450 1,-239 5,-516 10,-615 5,-99 5,-190 0,-202 -11,-29 -37,-29 -82,-3 -48,29 -64,70 -49,127 7,24 10,48 7,53 -3,5 -8,179 -10,387 -3,208 -7,416 -10,463 -9,140 -15,542 -9,567 9,35 21,28 29,-16 z m 1708,-101 c -15,-79 -1,-1339 16,-1382 5,-15 14,-29 20,-32 13,-8 -66,-82 -103,-96 -41,-15 -86,-13 -86,5 0,8 4,15 9,15 22,0 28,70 25,305 -4,413 -14,826 -20,891 -5,55 -3,67 29,131 20,38 41,98 48,134 7,35 20,72 28,82 15,17 16,18 28,1 9,-12 11,-30 6,-54 z M 3974,4863 c 54,-62 63,-93 56,-208 -1,-27 0,-179 4,-338 l 6,-287 -24,-10 c -16,-6 -34,-29 -51,-65 -22,-45 -31,-55 -51,-55 -16,0 -28,-8 -34,-22 l -9,-23 v 22 c -1,12 3,24 8,27 5,3 12,32 16,63 12,84 13,605 3,762 -10,146 -6,181 18,181 9,0 35,-21 58,-47 z m 1181,35 c 3,-7 7,-202 9,-433 4,-465 6,-492 41,-577 6,-15 1,-18 -34,-18 -38,0 -41,2 -52,40 -7,22 -27,55 -45,72 l -32,32 v 176 c 1,96 -3,249 -8,340 -5,91 -8,188 -7,216 1,63 25,112 58,120 14,3 30,15 36,25 11,22 27,25 34,7 z m 1059,-48 c 7,0 22,-9 34,-21 28,-26 23,-70 -16,-146 -31,-60 -42,-67 -70,-47 -18,12 -20,24 -18,109 2,98 11,122 44,110 8,-3 19,-5 26,-5 z M 2905,4738 c 0,-114 -11,-147 -39,-118 -23,25 -86,149 -86,170 0,24 63,59 100,57 l 25,-2 z m 1308,-14 45,-35 v -282 c 0,-159 5,-333 12,-399 8,-77 9,-122 2,-134 -8,-14 -11,-6 -17,37 -8,61 -25,85 -65,94 -53,12 -74,57 -61,136 4,26 4,172 0,325 -4,153 -5,282 -3,286 11,17 43,7 87,-28 z m 727,-226 c 0,-139 2,-301 4,-360 l 4,-108 -30,-25 c -29,-25 -81,-34 -92,-16 -9,13 -12,711 -4,711 4,0 24,11 44,25 20,14 45,25 55,25 18,0 19,-13 19,-252 z m -465,160 c 10,-10 14,-121 19,-475 3,-292 9,-470 16,-482 15,-29 -12,-51 -64,-51 -81,0 -75,-30 -80,475 -3,248 -8,466 -11,486 -10,50 14,73 68,66 22,-3 45,-11 52,-19 z m 215,2 c 12,-8 15,-44 17,-212 2,-112 7,-295 12,-408 5,-113 9,-227 8,-255 0,-27 1,-65 3,-83 2,-18 0,-35 -3,-38 -12,-13 -84,-14 -107,-2 l -24,13 -3,285 c -3,386 -11,640 -19,669 -5,15 -2,26 7,32 19,12 90,11 109,-1 z m -785,-832 c -11,-36 -65,-76 -65,-48 0,13 51,70 62,70 5,0 6,-10 3,-22 z m 1275,-22 c 0,-8 -4,-18 -10,-21 -5,-3 -10,3 -10,14 0,12 5,21 10,21 6,0 10,-6 10,-14 z"
       id="path138"
       inkscape:connector-curvature="0"
       style="strokeWidth:2.91423249" />
    <path
       d="m 4534,5955 c -54,-24 -53,-50 4,-79 35,-18 34,-12 36,-179 1,-76 4,-91 21,-103 52,-39 79,22 65,148 -15,125 -15,123 30,141 71,28 43,77 -45,77 -29,0 -59,2 -67,4 -7,2 -27,-2 -44,-9 z"
       id="path140"
       style="fill:#000080;strokeWidth:2.91423249"
       inkscape:connector-curvature="0" />
    <path
       d="m 4024,5950 c -12,-4 -25,-17 -29,-27 -11,-28 -17,-301 -7,-320 8,-14 27,-17 106,-18 53,0 101,2 107,6 7,4 12,24 13,45 l 1,39 h -70 c -76,0 -95,7 -95,34 0,29 24,42 82,44 52,2 53,3 53,32 0,29 -1,30 -50,31 -72,2 -72,2 -79,20 -12,30 20,50 79,52 31,1 60,4 65,7 14,9 12,39 -2,53 -14,14 -141,15 -174,2 z"
       id="path142"
       style="fill:#000080;strokeWidth:2.91423249"
       inkscape:connector-curvature="0" />
    <path
       d="m 4305,5939 c -61,-38 -69,-74 -34,-146 17,-35 26,-43 49,-43 15,0 38,-8 51,-19 20,-16 21,-21 10,-35 -20,-23 -54,-20 -79,9 -17,20 -26,23 -44,16 -33,-13 -25,-48 23,-97 39,-39 42,-41 92,-37 42,4 58,11 81,35 24,27 28,37 23,74 -6,56 -30,92 -65,99 -46,10 -77,30 -77,50 0,26 54,34 67,11 12,-21 54,-21 62,0 10,25 8,32 -25,69 -25,28 -38,35 -68,34 -20,0 -49,-9 -66,-20 z"
       id="path144"
       style="fill:#000080;strokeWidth:2.91423249"
       inkscape:connector-curvature="0" />
    <path
       d="m 4773,5933 c -15,-23 -18,-50 -17,-176 0,-118 3,-150 15,-158 22,-14 127,-10 158,6 47,24 71,87 71,188 0,98 -8,112 -89,148 -65,28 -116,26 -138,-8 z m 121,-76 c 24,-18 37,-84 25,-129 -10,-39 -34,-54 -69,-43 -17,6 -20,15 -20,76 0,99 20,128 64,96 z"
       id="path146"
       style="fill:#000080;strokeWidth:2.91423249"
       inkscape:connector-curvature="0" />
    <path
       d="m 4304,5415 c -32,-22 -47,-69 -42,-126 4,-41 11,-56 37,-79 35,-33 40,-51 12,-43 -13,3 -23,-2 -31,-17 -14,-26 7,-65 46,-82 33,-15 71,12 101,73 19,38 21,55 16,124 -7,112 -17,141 -55,154 -41,15 -60,14 -84,-4 z m 64,-87 c 27,-27 4,-75 -28,-58 -24,13 -33,40 -19,56 14,17 31,18 47,2 z"
       id="path148"
       style="fill:#000080;strokeWidth:2.91423249"
       inkscape:connector-curvature="0" />
    <path
       d="m 4525,5400 c -28,-29 -30,-37 -34,-122 -5,-137 26,-202 103,-210 25,-3 32,3 51,39 12,22 25,52 28,65 13,49 -22,117 -60,118 -6,0 -23,4 -38,10 -22,8 -24,13 -15,30 13,24 28,25 50,5 11,-10 24,-12 45,-6 21,5 37,3 52,-6 16,-11 27,-12 42,-4 67,37 80,-9 24,-85 -51,-68 -77,-118 -70,-136 4,-11 28,-17 83,-21 87,-6 107,1 102,42 -2,20 -10,27 -33,31 -39,7 -46,41 -12,63 30,19 63,114 53,152 -8,32 -66,59 -108,51 -16,-3 -45,-17 -65,-31 l -37,-25 -31,30 c -18,17 -47,33 -66,36 -29,5 -39,1 -64,-26 z m 87,-188 c 6,-28 -3,-52 -21,-52 -38,0 -56,51 -24,68 21,12 41,5 45,-16 z"
       id="path150"
       style="fill:#000080;strokeWidth:2.91423249"
       inkscape:connector-curvature="0" />
    <path
       d="m 4093,5376 c -35,-35 -44,-51 -41,-73 2,-22 10,-30 36,-38 l 32,-9 v -82 c 0,-63 4,-86 16,-99 20,-20 36,-15 50,14 11,21 9,284 -1,319 -9,25 -49,11 -92,-32 z"
       id="path152"
       style="fill:#000080;strokeWidth:2.91423249"
       inkscape:connector-curvature="0" />
    <path
       d="m 6370,7342 c -25,-16 -54,-31 -65,-34 -86,-26 -155,-61 -155,-79 0,-14 57,-39 88,-39 40,0 62,-28 62,-79 0,-23 7,-56 16,-72 14,-28 17,-29 36,-17 12,8 27,31 34,51 7,20 33,79 58,130 48,99 52,116 36,148 -15,27 -57,24 -110,-9 z"
       id="path154"
       style="fill:#000080;strokeWidth:2.91423249"
       inkscape:connector-curvature="0" />
    <path
       d="m 2540,7340 c -35,-35 -27,-50 55,-114 26,-21 28,-26 15,-41 -11,-13 -23,-15 -54,-11 -118,18 -127,18 -147,1 -10,-10 -19,-22 -19,-26 0,-4 30,-32 66,-61 37,-29 88,-72 114,-95 50,-46 88,-55 111,-27 17,21 3,43 -43,68 -39,22 -62,51 -53,66 9,15 59,12 81,-5 10,-8 38,-15 61,-15 34,0 46,5 67,31 21,25 24,34 15,50 -6,11 -18,23 -27,26 -20,8 -149,118 -175,151 -23,27 -41,28 -67,2 z"
       id="path156"
       style="fill:#000080;strokeWidth:2.91423249"
       inkscape:connector-curvature="0" />
    <path
       d="m 6593,7152 c -30,-31 -126,-100 -155,-111 -32,-12 -63,-55 -54,-76 3,-10 20.3934,-23.5618 46,-15 91.048,30.4428 87.7454,23.2103 76.048,-34.6273 -15,-32 -8.3026,-38.1624 36.6974,-50.1624 C 6645.4686,6879.3506 6535,6820 6535,6784 c 0,-37 2,-39 33,-42 37,-4 43.0923,-31.3727 -7.9077,-81.3727 -8,-23 12.9077,-27.6273 15.9077,-32.6273 10,-16 61,-1 119,37 30,19 82,48 115,65 58,29 61,33 58,63 -3,27 -8,33 -32,35 -18,2 -40,-4 -58,-18 -77,-57 -118,-80 -142,-80 -17,0 -59.2103,10.4649 -59.2103,10.4649 31.9447,26.3139 63.8376,64.6274 104.2103,89.5351 24.6809,15.2268 119,72 119,95 0,30 -28,65 -51,65 -11,0 -37,-11 -57,-25 -20,-14 -42,-25 -48,-25 -6,0 -17,-7 -24,-15 -7,-8 -5.6273,9.9077 -21.6273,9.9077 -51,0 -9.5572,65.513 44.6273,108.0923 40,42 64.6052,53.6974 40.7675,70.6273 -50.9778,64.9078 -53.4649,65.6052 -90.7675,38.3727 z"
       id="path158"
       inkscape:connector-curvature="0"
       sodipodi:nodetypes="cccsccsccccccccsssssssssccc"
       style="fill:#000080;strokeWidth:2.91423249" />
    <path
       d="m 2317,7052 c -10,-10 -17,-23 -17,-28 0,-17 107,-104 127,-104 4,0 35,-20 68,-45 67,-51 65,-50 89,-32 32,24 17,66 -33,93 -24,13 -54,31 -65,41 -37,32 -131,93 -142,93 -6,0 -18,-8 -27,-18 z"
       id="path160"
       style="fill:#000080;strokeWidth:2.91423249"
       inkscape:connector-curvature="0" />
    <path
       d="m 2202,6871 c -52,-38 -65,-69 -60,-139 8,-88 66,-144 163,-156 65,-7 96,5 143,58 31,36 50,105 38,143 -3,10 -27,41 -52,67 -45,48 -47,49 -118,54 -67,4 -73,2 -114,-27 z m 143,-47 c 23,-9 45,-57 45,-98 0,-62 -64,-85 -127,-46 -33,20 -37,29 -33,85 3,50 61,79 115,59 z"
       id="path162"
       style="fill:#000080;strokeWidth:2.91423249"
       inkscape:connector-curvature="0" />
    <path
       d="m 6870,6687 c -14,-7 -43,-23 -65,-37 -22,-14 -66,-38 -97,-54 -72,-35 -83,-48 -68,-75 12,-24 42,-27 59,-7 18,21 63,30 72,14 12,-18 1,-47 -32,-89 -16,-20 -29,-47 -29,-59 0,-26 17,-60 31,-60 6,0 47,18 93,40 45,22 105,47 133,55 57,17 71,37 48,71 -20,32 -49,30 -110,-6 -27,-16 -56,-30 -62,-30 -18,0 -16,47 2,54 8,3 15,10 15,16 0,6 18,35 40,64 41,54 49,83 28,104 -14,14 -25,14 -58,-1 z"
       id="path164"
       style="fill:#000080;strokeWidth:2.91423249"
       inkscape:connector-curvature="0" />
    <path
       d="m 2047,6583 c -10,-10 -8,-52 3,-73 6,-11 27,-24 48,-30 20,-5 63,-17 95,-26 32,-9 57,-21 57,-29 0,-7 -16,-25 -36,-40 -27,-21 -34,-33 -32,-53 3,-26 6,-27 57,-27 47,1 57,5 82,33 22,25 29,42 29,75 0,55 -20,83 -66,92 -20,3 -70,24 -110,46 -70,37 -112,48 -127,32 z"
       id="path166"
       style="fill:#000080;strokeWidth:2.91423249"
       inkscape:connector-curvature="0" />
    <path
       d="m 6770,6266 c -18,-18 33.2804,-22.1624 68.2804,-43.1624 47,-27 13.7196,-96.8376 -18.2804,-147.8376 -12,-20 -19,-42 -16,-50 9,-25 65,-18 101,13 55,45 108,86 153,116 35,24 42,34 42,62 0,54 -36.8376,70.3026 -195.8376,69.3026 C 6824.1624,6285.3026 6776,6272 6770,6266 Z m 179,-70 c 14,-17 -9,-39 -33,-30 -19,7 -21,30 -3,37 20,9 24,8 36,-7 z"
       id="path168"
       inkscape:connector-curvature="0"
       sodipodi:nodetypes="scccccscscccc"
       style="fill:#000080;strokeWidth:2.91423249" />
    <path
       d="m 2178,6150 c -16,-12 -28,-34 -32,-60 -9,-57 -41,-77 -99,-60 -133,37 -167,34 -167,-16 0,-32 36,-54 91,-54 26,0 66,-7 90,-16 100,-35 149,-17 149,53 0,19 9,51 20,73 24,47 25,64 4,84 -20,21 -26,20 -56,-4 z"
       id="path170"
       style="fill:#000080;strokeWidth:2.91423249"
       inkscape:connector-curvature="0" />
    <path
       d="m 7077,6013 c -4,-3 -7,-23 -7,-43 0,-21 -7,-43 -15,-50 -9,-7 -53,-16 -99,-20 -46,-5 -93,-14 -105,-21 -27,-18 -27,-55 0,-70 24,-12 117,-5 170,13 41,14 77,-3 90,-42 13,-36 45,-48 67,-26 14,14 15,20 3,49 -8,17 -17,68 -20,112 -3,44 -10,86 -14,93 -9,13 -59,17 -70,5 z"
       id="path172"
       style="fill:#000080;strokeWidth:2.91423249"
       inkscape:connector-curvature="0" />
    <path
       d="m 2015,5840 c -49,-16 -102,-29 -116,-29 -14,-1 -33,-9 -42,-19 -21,-23 -22,-76 -3,-95 30,-29 210,-101 256,-101 42,-1 45,1 48,27 3,23 -2,30 -33,43 -37,15 -37,16 -31,57 4,23 10,43 14,45 4,1 22,11 40,22 27,16 33,26 30,48 -3,23 -8,27 -38,29 -19,1 -75,-11 -125,-27 z m 21,-119 c -9,-14 -43,-14 -52,1 -4,6 1,17 12,25 15,11 20,11 32,-1 8,-8 11,-19 8,-25 z"
       id="path174"
       style="fill:#000080;strokeWidth:2.91423249"
       inkscape:connector-curvature="0" />
    <path
       d="m 6861,5687 c -17,-17 -13,-55 8,-66 22,-12 267,-3 294,11 16,8 25,57 10,59 -47,8 -304,4 -312,-4 z"
       id="path176"
       style="fill:#000080;strokeWidth:2.91423249"
       inkscape:connector-curvature="0" />
    <path
       d="m 6935,5548 c -35,-19 -64,-50 -84,-89 -19,-36 -19,-39 -3,-89 21,-67 77,-119 130,-122 57,-2 115,3 133,13 9,4 31,31 49,58 29,46 31,54 25,106 -12,96 -65,135 -180,135 -27,0 -59,-6 -70,-12 z m 130,-85 c 30,-14 35,-21 35,-52 0,-74 -91,-110 -154,-60 -23,18 -27,28 -24,62 2,33 8,44 28,54 34,17 73,16 115,-4 z"
       id="path178"
       style="fill:#000080;strokeWidth:2.91423249"
       inkscape:connector-curvature="0" />
    <path
       d="m 1990,5541 c -8,-5 -36,-12 -62,-15 -42,-6 -52,-13 -78,-51 -39,-57 -41,-118 -5,-175 38,-60 68,-75 147,-74 80,2 103,14 147,80 33,50 38,82 20,117 -7,12 -12,37 -13,56 -1,28 -7,38 -26,47 -35,16 -112,25 -130,15 z m -25,-121 c 20,-22 55,-26 72,-9 16,16 33,2 33,-27 0,-37 -51,-84 -90,-84 -22,0 -41,9 -61,29 -32,32 -35,47 -17,86 14,30 38,32 63,5 z"
       id="path180"
       style="fill:#000080;strokeWidth:2.91423249"
       inkscape:connector-curvature="0" />
    <path
       d="m 6831,5196 c -7,-8 -11,-27 -9,-43 3,-26 7,-28 48,-31 75,-4 92,-10 88,-34 -2,-13 -20,-29 -53,-45 -27,-13 -61,-30 -75,-36 -60,-30 -25,-87 52,-87 27,0 59,-5 70,-11 32,-17 150,-30 165,-17 7,6 13,23 13,39 0,34 -22,43 -82,34 -30,-4 -49,-2 -62,8 -38,28 6,67 76,67 54,0 124,93 87,116 -6,3 -39,8 -72,10 -53,4 -129,18 -213,40 -12,3 -25,-1 -33,-10 z"
       id="path182"
       style="fill:#000080;strokeWidth:2.91423249"
       inkscape:connector-curvature="0" />
    <path
       d="m 2085,5174 c -33,-7 -86,-13 -118,-14 -70,0 -97,-13 -97,-44 0,-34 20,-46 79,-47 54,-2 66,-14 27,-28 -34,-13 -86,-81 -86,-112 0,-39 22,-52 77,-45 27,3 92,9 146,12 84,5 100,9 112,27 21,30 19,44 -8,62 -21,13 -29,13 -73,0 -64,-19 -93,-19 -101,1 -7,20 40,63 105,95 55,27 69,52 47,85 -17,27 -25,28 -110,8 z"
       id="path184"
       style="fill:#000080;strokeWidth:2.91423249"
       inkscape:connector-curvature="0" />
    <path
       d="m 2193,4863 c -3,-10 -7,-20 -9,-23 -1,-3 11,-32 26,-65 30,-63 27,-85 -11,-85 -21,0 -49,36 -49,65 0,52 -61,85 -91,49 -9,-11 -23,-14 -47,-10 -49,7 -72,-8 -72,-47 0,-18 6,-41 13,-52 8,-11 17,-36 21,-54 10,-53 32,-81 64,-81 31,0 121,27 137,41 5,5 23,9 40,9 16,0 50,9 74,20 33,15 42,24 38,38 -3,9 -15,44 -27,77 -11,33 -23,77 -27,97 -5,35 -8,38 -40,38 -23,0 -36,-5 -40,-17 z m -113,-143 c 24,-24 26,-48 5,-56 -23,-9 -45,15 -45,47 0,34 12,37 40,9 z"
       id="path186"
       style="fill:#000080;strokeWidth:2.91423249"
       inkscape:connector-curvature="0" />
    <path
       d="m 6794,4861 c -67,-41 -84,-183 -27,-228 45,-37 77,-30 115,23 68,95 99,114 106,66 2,-14 -11,-37 -37,-65 -51,-55 -53,-77 -8,-77 66,0 112,56 124,152 7,54 -29,88 -94,88 -58,0 -90,-19 -109,-66 -11,-25 -20,-34 -39,-34 -50,0 -43,58 11,84 29,13 35,21 32,44 -4,34 -32,39 -74,13 z"
       id="path188"
       style="fill:#000080;strokeWidth:2.91423249"
       inkscape:connector-curvature="0" />
    <path
       d="m 2275,4556 c -16,-7 -38,-22 -48,-33 -10,-11 -37,-28 -60,-38 -57,-25 -77,-44 -77,-71 0,-29 18,-73 41,-99 10,-11 21,-36 26,-55 12,-48 52,-52 119,-13 27,16 69,37 94,48 75,32 105,51 108,67 5,28 -61,149 -97,179 -39,32 -61,35 -106,15 z m 75,-86 c 38,-38 17,-110 -27,-96 -18,6 -53,58 -53,80 0,37 49,47 80,16 z m -122,-66 c 26,-18 31,-81 8,-90 -39,-15 -83,58 -56,91 16,19 20,19 48,-1 z"
       id="path190"
       style="fill:#000080;strokeWidth:2.91423249"
       inkscape:connector-curvature="0" />
    <path
       d="m 6612,4478 c -5,-7 -15,-31 -22,-53 -7,-22 -19,-57 -28,-77 -16,-41 -10,-99 12,-117 8,-7 38,-16 67,-20 32,-5 58,-16 68,-28 21,-26 44,-34 81,-27 23,5 33,15 46,49 9,24 24,52 34,62 26,29 42,63 36,79 -3,8 -31,26 -63,40 -31,15 -81,44 -110,65 -54,40 -101,50 -121,27 z m 82,-104 c 41,-16 0,-89 -46,-82 -29,4 -35,31 -14,63 17,25 32,30 60,19 z m 106,-78 c 0,-28 -24,-51 -45,-42 -32,12 -10,66 27,66 12,0 18,-8 18,-24 z"
       id="path192"
       style="fill:#000080;strokeWidth:2.91423249"
       inkscape:connector-curvature="0" />
    <path
       d="m 6442,4169 c -51,-24 -102,-97 -102,-147 0,-42 41,-121 77,-147 22,-15 44,-19 110,-20 82,0 83,0 114,35 45,51 51,75 39,135 -12,58 -57,110 -125,145 -47,24 -58,24 -113,-1 z m 78,-86 c 25,-9 51,-21 58,-26 15,-11 16,-91 2,-118 -30,-55 -160,17 -160,90 0,34 23,71 44,71 6,0 31,-8 56,-17 z"
       id="path194"
       style="fill:#000080;strokeWidth:2.91423249"
       inkscape:connector-curvature="0" />
    <path
       d="m 2559,4115 c -30,-24 -68,-56 -85,-70 -41,-32 -77,-33 -94,-1 -15,28 -33,38 -55,30 -27,-11 -17,-57 19,-96 19,-20 46,-56 60,-80 31,-54 68,-77 91,-58 19,16 19,39 0,64 -23,30 -18,55 13,68 60,27 162,114 162,139 0,20 -26,49 -44,49 -7,0 -37,-20 -67,-45 z"
       id="path196"
       style="fill:#000080;strokeWidth:2.91423249"
       inkscape:connector-curvature="0" />
    <path
       d="m 2665,3949 c -29,-18 -35,-29 -35,-71 0,-35 -2,-38 -29,-38 -73,0 -80,-76 -15,-154 21,-25 47,-49 57,-52 32,-10 88,6 113,33 26,28 32,81 13,100 -13,13 -33,47 -49,81 -21,47 12,56 59,16 23,-19 31,-34 31,-59 0,-21 6,-35 16,-39 26,-10 33,-7 49,18 23,34 6,92 -40,136 -30,29 -43,34 -92,37 -33,2 -67,-2 -78,-8 z m 9,-164 c 22,-28 25,-38 16,-55 -13,-24 -20,-25 -45,-6 -18,13 -24,64 -10,86 9,14 10,14 39,-25 z"
       id="path198"
       style="fill:#000080;strokeWidth:2.91423249"
       inkscape:connector-curvature="0" />
    <path
       d="m 6250,3935 c -7,-9 -10,-27 -7,-45 5,-22 0,-36 -19,-59 -22,-26 -33,-30 -82,-33 -56,-3 -57,-4 -60,-35 -3,-29 1,-33 50,-58 29,-15 60,-33 69,-41 8,-8 22,-14 30,-14 8,0 34,-14 59,-30 56,-38 69,-37 108,1 39,38 39,46 7,93 -14,20 -25,40 -25,44 0,4 -11,24 -24,43 -14,20 -28,49 -32,65 -9,40 -36,84 -50,84 -6,0 -17,-7 -24,-15 z m 58,-192 c -2,-21 -9,-29 -27,-31 -30,-5 -45,10 -36,37 5,15 15,21 36,21 27,0 30,-3 27,-27 z"
       id="path200"
       style="fill:#000080;strokeWidth:2.91423249"
       inkscape:connector-curvature="0" />
    <path
       d="m 2922,3778 c -21,-21 -13,-35 38,-75 55,-43 66,-63 50,-93 -16,-29 -31,-25 -75,20 -46,47 -78,50 -83,9 -2,-21 6,-34 37,-61 25,-21 41,-44 41,-56 0,-35 -41,-28 -80,13 -23,23 -43,35 -61,35 -53,0 -49,-46 7,-79 19,-11 40,-25 47,-31 69,-57 79,-62 101,-56 14,3 31,20 41,42 9,20 49,71 88,113 l 70,76 -49,40 c -26,22 -65,57 -86,78 -38,38 -65,46 -86,25 z"
       id="path202"
       style="fill:#000080;strokeWidth:2.91423249"
       inkscape:connector-curvature="0" />
    <path
       d="m 5982,3708 c -19,-19 -14,-42 13,-66 31,-27 32,-66 3,-86 -34,-24 -62,-20 -81,14 -23,38 -65,50 -84,25 -18,-26 -17,-33 15,-63 41,-39 82,-96 82,-115 0,-9 15,-32 34,-50 31,-32 37,-34 77,-27 32,5 55,17 84,46 23,21 51,47 63,56 29,24 28,59 -4,89 -14,13 -46,54 -71,91 -25,37 -50,72 -57,77 -20,17 -61,22 -74,9 z m 112,-201 c 26,-19 16,-49 -23,-69 -25,-13 -39,-14 -53,-7 -27,15 -20,60 12,76 32,16 42,16 64,0 z"
       id="path204"
       style="fill:#000080;strokeWidth:2.91423249"
       inkscape:connector-curvature="0" />
    <path
       d="m 3199,3523 c -25,-21 -65,-54 -90,-73 -76,-61 -101,-88 -97,-111 9,-59 65,-46 118,27 18,26 39,44 51,44 27,0 24,-28 -7,-84 -29,-51 -27,-91 5,-101 25,-8 46,2 61,29 19,36 70,70 83,57 8,-8 6,-21 -6,-46 -22,-47 -21,-87 2,-116 16,-20 23,-22 38,-13 10,6 19,22 21,35 2,13 16,77 33,141 34,138 35,154 9,168 -33,18 -56,3 -89,-55 -29,-51 -59,-74 -81,-60 -15,10 -12,23 20,92 50,105 16,137 -71,66 z"
       id="path206"
       style="fill:#000080;strokeWidth:2.91423249"
       inkscape:connector-curvature="0" />
    <path
       d="m 5675,3491 c -94,-62 -105,-75 -105,-115 0,-21 13,-62 30,-95 44,-88 93,-120 163,-107 39,7 157,81 157,98 0,6 -13,32 -29,57 -16,25 -48,80 -70,121 -49,93 -63,97 -146,41 z m 90,-103 c 56,-66 62,-88 29,-116 -56,-49 -144,15 -144,104 0,24 34,54 61,54 10,0 34,-19 54,-42 z"
       id="path208"
       style="fill:#000080;strokeWidth:2.91423249"
       inkscape:connector-curvature="0" />
  </g>
</svg>
